<svg width="500" height="30" viewBox="0 0 500 30" fill="none" xmlns="http://www.w3.org/2000/svg">
<path fill-rule="evenodd" clip-rule="evenodd" d="M13.0505 83.0208C13.0505 73.8475 20.487 66.4111 29.6603 66.4111C38.8336 66.4111 46.27 73.8475 46.27 83.0208V86.6812C46.27 86.9359 46.2643 87.1894 46.2529 87.4413C53.1227 89.4778 58.1341 95.8378 58.1341 103.368V107.029C58.1341 116.202 50.6977 123.638 41.5244 123.638C36.5635 123.638 32.1106 121.464 29.0671 118.015C26.0236 121.464 21.5706 123.638 16.6097 123.638C7.43644 123.638 0 116.202 0 107.029V103.368C0 95.4145 5.59066 88.7665 13.0567 87.1394C13.0526 86.9872 13.0505 86.8344 13.0505 86.6812V83.0208Z" fill="#B4B4B8"/>
<path fill-rule="evenodd" clip-rule="evenodd" d="M50.2676 138.692C44.7083 145.859 34.7119 146.777 27.9401 140.742C21.1683 134.707 20.1855 124.004 25.7448 116.837L26.7294 115.568C27.0677 115.132 27.4223 114.719 27.7917 114.329C23.9177 108.213 24.0594 99.9134 28.6373 94.0112L29.6219 92.7419C35.1813 85.5745 45.1776 84.6565 51.9494 90.6914C55.6116 93.9551 57.5807 98.584 57.7376 103.28C62.0741 102.589 66.6793 103.819 70.3415 107.082C77.1132 113.117 78.0961 123.82 72.5367 130.988L71.5522 132.257C66.7214 138.485 58.5404 139.994 52.036 136.323C51.791 136.698 51.5297 137.064 51.2522 137.422L50.2676 138.692Z" fill="#B4B4B8"/>
<path fill-rule="evenodd" clip-rule="evenodd" d="M46.415 77.2707C46.415 67.9954 53.934 60.4764 63.2093 60.4764C72.4845 60.4764 80.0036 67.9954 80.0036 77.2707V80.9717C80.0036 81.2293 79.9978 81.4855 79.9863 81.7403C86.9324 83.7994 91.9995 90.2301 91.9995 97.8443V101.545C91.9995 110.82 84.4805 118.34 75.2052 118.34C70.1892 118.34 65.6868 116.141 62.6095 112.654C59.5322 116.141 55.0298 118.34 50.0138 118.34C40.7385 118.34 33.2195 110.82 33.2195 101.545V97.8443C33.2195 89.8021 38.8722 83.0802 46.4212 81.4351C46.4171 81.2811 46.415 81.1266 46.415 80.9717V77.2707Z" fill="#B4B4B8"/>
<path fill-rule="evenodd" clip-rule="evenodd" d="M45.945 68.915C45.945 59.6398 53.4641 52.1207 62.7393 52.1207C72.0145 52.1207 79.5336 59.6398 79.5336 68.915V72.616C79.5336 72.8736 79.5278 73.1299 79.5163 73.3846C86.4624 75.4437 91.5296 81.8744 91.5296 89.4886V93.1896C91.5296 102.465 84.0105 109.984 74.7353 109.984C69.7192 109.984 65.2169 107.785 62.1395 104.298C59.0622 107.785 54.5598 109.984 49.5438 109.984C40.2686 109.984 32.7495 102.465 32.7495 93.1896V89.4886C32.7495 81.4464 38.4023 74.7245 45.9513 73.0794C45.9471 72.9255 45.945 72.771 45.945 72.616V68.915Z" fill="#B4B4B8"/>
<path fill-rule="evenodd" clip-rule="evenodd" d="M18.7321 63.4797C18.7321 55.8692 24.9016 49.6998 32.5121 49.6998C40.1225 49.6998 46.292 55.8693 46.292 63.4797V66.5164C46.292 66.7278 46.2873 66.938 46.2778 67.1471C51.9772 68.8366 56.1348 74.113 56.1348 80.3606V83.3973C56.1348 91.0077 49.9654 97.1772 42.3549 97.1772C38.2392 97.1772 34.5449 95.3729 32.0199 92.5121C29.495 95.3729 25.8007 97.1772 21.685 97.1772C14.0745 97.1772 7.90503 91.0077 7.90503 83.3973V80.3606C7.90503 73.7618 12.5432 68.2464 18.7373 66.8966C18.7339 66.7703 18.7321 66.6436 18.7321 66.5164V63.4797Z" fill="#B4B4B8"/>
<path fill-rule="evenodd" clip-rule="evenodd" d="M29.633 77.5066C29.633 70.1717 35.5791 64.2256 42.914 64.2256C50.2488 64.2256 56.1949 70.1717 56.1949 77.5066V80.4334C56.1949 80.6371 56.1903 80.8397 56.1813 81.0412C61.6743 82.6695 65.6813 87.7549 65.6813 93.7762V96.703C65.6813 104.038 59.7353 109.984 52.4004 109.984C48.4337 109.984 44.8732 108.245 42.4397 105.488C40.0061 108.245 36.4456 109.984 32.4789 109.984C25.1441 109.984 19.198 104.038 19.198 96.703V93.7762C19.198 87.4165 23.6682 82.1008 29.638 80.7998C29.6347 80.6781 29.633 80.5559 29.633 80.4334V77.5066Z" fill="#B4B4B8"/>
<path fill-rule="evenodd" clip-rule="evenodd" d="M2.57673 95.7014C5.48122 100.533 10.7745 103.766 16.8229 103.766C19.6238 103.766 22.2629 103.073 24.5777 101.849C25.5459 103.965 26.9396 105.905 28.7446 107.514C35.5164 113.549 45.5127 112.631 51.0721 105.464L52.0567 104.194C52.3342 103.836 52.5955 103.47 52.8405 103.095C59.3449 106.766 67.5259 105.257 72.3566 99.0288L72.9336 98.2849C73.7444 98.4052 74.5741 98.4675 75.4184 98.4675C82.8695 98.4675 89.1872 93.6151 91.384 86.8981C91.619 88.0173 91.7426 89.1774 91.7426 90.3665V94.0675C91.7426 94.2827 91.7386 94.497 91.7305 94.7103C92.0456 95.9958 92.2127 97.3395 92.2127 98.7222V102.423C92.2127 111.42 85.1376 118.765 76.2475 119.197C76.7243 123.613 75.592 128.201 72.75 131.865L71.7654 133.135C66.9347 139.363 58.7537 140.872 52.2493 137.201C52.0043 137.576 51.743 137.942 51.4655 138.3L50.4809 139.57C44.9215 146.737 34.9252 147.655 28.1534 141.62C22.9843 137.013 21.1882 129.687 23.1003 123.289C21.1636 124.08 19.0442 124.516 16.8229 124.516C7.64957 124.516 0.213135 117.08 0.213135 107.907V104.246C0.213135 101.121 1.07611 98.1979 2.57673 95.7014Z" fill="#C7C8CC"/>
<path d="M42.2683 113.149H50.1734L56.616 179.11H35.7241L42.2683 113.149Z" fill="#C7C8CC"/>
<path d="M42.2116 113.149H50.2298L53.6247 148.651H38.7971L42.2116 113.149Z" fill="#C7C8CC"/>
<path fill-rule="evenodd" clip-rule="evenodd" d="M40.0481 141.256C27.6853 131.715 26.1825 117.379 27.0474 111.12L32.6329 112.007C31.9921 116.644 33.1244 128.454 43.3474 136.344L40.0481 141.256Z" fill="#C7C8CC"/>
<path fill-rule="evenodd" clip-rule="evenodd" d="M49.3857 131.572C61.7486 122.031 63.2513 107.695 62.3864 101.437L56.8009 102.324C57.4417 106.96 56.3094 118.77 46.0865 126.66L49.3857 131.572Z" fill="#C7C8CC"/>
<path fill-rule="evenodd" clip-rule="evenodd" d="M32.142 89.0979C32.142 82.9755 37.1052 78.0123 43.2276 78.0123C49.3499 78.0123 54.3131 82.9755 54.3131 89.0979V91.5408C54.3131 91.7109 54.3093 91.88 54.3017 92.0482C58.8867 93.4074 62.2314 97.6521 62.2314 102.678V105.121C62.2314 111.243 57.2682 116.207 51.1458 116.207C47.8348 116.207 44.8629 114.755 42.8316 112.454C40.8004 114.755 37.8284 116.207 34.5175 116.207C28.3951 116.207 23.4319 111.243 23.4319 105.121V102.678C23.4319 97.3696 27.1632 92.9326 32.1461 91.8467C32.1434 91.7451 32.142 91.6431 32.142 91.5409V89.0979Z" fill="#B4B4B8"/>
<path fill-rule="evenodd" clip-rule="evenodd" d="M52.0717 94.2812C52.0717 89.9907 55.5498 86.5126 59.8403 86.5126C64.1308 86.5126 67.6089 89.9907 67.6089 94.2812V95.9932C67.6089 96.1123 67.6062 96.2309 67.6009 96.3487C70.814 97.3012 73.1579 100.276 73.1579 103.798V105.51C73.1579 109.8 69.6798 113.279 65.3893 113.279C63.069 113.279 60.9863 112.261 59.5628 110.649C58.1394 112.261 56.0567 113.279 53.7364 113.279C49.4459 113.279 45.9678 109.8 45.9678 105.51V103.798C45.9678 100.078 48.5826 96.9685 52.0746 96.2075C52.0727 96.1363 52.0717 96.0649 52.0717 95.9932V94.2812Z" fill="#B4B4B8"/>
<path fill-rule="evenodd" clip-rule="evenodd" d="M41.4883 70.1658C46.5416 73.9473 47.8458 81.3003 44.4012 86.589C40.9566 91.8778 34.0677 93.0997 29.0144 89.3181L28.8084 89.164C28.3983 88.857 28.0128 88.5266 27.6526 88.1756C23.9493 91.3512 18.5233 91.6412 14.3494 88.5178L14.1434 88.3637C9.09011 84.5821 7.78594 77.2292 11.2305 71.9404C13.0933 69.0803 15.9635 67.4095 19.0059 67.0763C18.2491 63.9001 18.7231 60.4363 20.5859 57.5762C24.0305 52.2874 30.9194 51.0655 35.9727 54.8471L36.1787 55.0012C40.5802 58.295 42.1374 64.2983 40.1896 69.2871C40.5617 69.504 40.9265 69.7454 41.2823 70.0117L41.4883 70.1658Z" fill="#B4B4B8"/>
<path fill-rule="evenodd" clip-rule="evenodd" d="M200.168 99.2131C200.168 91.6689 206.284 85.5532 213.828 85.5532H217.48C225.025 85.5532 231.14 91.6689 231.14 99.2131C231.14 99.7686 231.107 100.316 231.043 100.855C237.393 102.029 242.202 107.596 242.202 114.286C242.202 121.83 236.086 127.946 228.542 127.946H224.889C221.051 127.946 217.582 126.363 215.101 123.814C212.62 126.363 209.151 127.946 205.313 127.946H201.66C194.116 127.946 188 121.83 188 114.286C188 107.219 193.367 101.405 200.248 100.698C200.195 100.21 200.168 99.715 200.168 99.2131Z" fill="#B4B4B8"/>
<path fill-rule="evenodd" clip-rule="evenodd" d="M235.327 138.627C229.923 144.163 220.364 145.087 214.05 140.616C207.737 136.146 207.058 127.973 212.463 122.438C212.937 121.951 213.444 121.501 213.978 121.086C210.381 116.487 210.691 110.106 215.159 105.529C220.564 99.9929 230.122 99.069 236.436 103.54C239.85 105.957 241.616 109.458 241.664 113.038C245.806 112.424 250.169 113.264 253.584 115.682C259.898 120.152 260.576 128.325 255.172 133.86C250.46 138.687 242.591 140.007 236.467 137.304C236.123 137.759 235.743 138.201 235.327 138.627Z" fill="#B4B4B8"/>
<path fill-rule="evenodd" clip-rule="evenodd" d="M231.276 94.9686C231.276 87.3406 237.459 81.1569 245.087 81.1569H248.781C256.409 81.1569 262.592 87.3406 262.592 94.9686C262.592 95.5303 262.559 96.0842 262.494 96.6283C268.914 97.8161 273.777 103.445 273.777 110.209C273.777 117.837 267.593 124.021 259.965 124.021H256.272C252.391 124.021 248.884 122.42 246.375 119.843C243.866 122.42 240.359 124.021 236.478 124.021H232.784C225.156 124.021 218.973 117.837 218.973 110.209C218.973 103.063 224.399 97.1849 231.356 96.4703C231.303 95.9771 231.276 95.476 231.276 94.9686Z" fill="#B4B4B8"/>
<path fill-rule="evenodd" clip-rule="evenodd" d="M230.837 88.7788C230.837 81.1508 237.021 74.9671 244.649 74.9671H248.342C255.97 74.9671 262.154 81.1508 262.154 88.7788C262.154 89.3405 262.12 89.8944 262.055 90.4385C268.476 91.6263 273.338 97.255 273.338 104.019C273.338 111.647 267.155 117.831 259.527 117.831H255.833C251.952 117.831 248.445 116.23 245.936 113.653C243.427 116.23 239.92 117.831 236.039 117.831H232.346C224.718 117.831 218.534 111.647 218.534 104.019C218.534 96.8735 223.961 90.9952 230.918 90.2806C230.865 89.7873 230.837 89.2863 230.837 88.7788Z" fill="#B4B4B8"/>
<path fill-rule="evenodd" clip-rule="evenodd" d="M205.465 84.5064C205.465 78.2475 210.539 73.1737 216.798 73.1737H219.828C226.087 73.1737 231.161 78.2475 231.161 84.5064C231.161 84.9673 231.134 85.4217 231.08 85.8682C236.348 86.8428 240.338 91.4612 240.338 97.0114C240.338 103.27 235.264 108.344 229.006 108.344H225.975C222.791 108.344 219.913 107.031 217.854 104.916C215.796 107.031 212.918 108.344 209.734 108.344H206.703C200.444 108.344 195.371 103.27 195.371 97.0114C195.371 91.1482 199.823 86.3249 205.532 85.7386C205.488 85.3339 205.465 84.9228 205.465 84.5064Z" fill="#B4B4B8"/>
<path fill-rule="evenodd" clip-rule="evenodd" d="M243.335 89.4429C248.252 93.8749 248.058 100.832 242.901 104.983C237.743 109.133 229.576 108.905 224.658 104.473L224.188 104.049C223.829 103.725 223.497 103.388 223.193 103.04C218.227 105.203 211.96 104.408 207.904 100.752L207.433 100.328C202.515 95.8955 202.71 88.938 207.867 84.7876C210.656 82.543 214.326 81.5791 217.885 81.8681C217.748 78.825 219.086 75.7596 221.875 73.515C227.032 69.3646 235.2 69.5929 240.117 74.025L240.588 74.4491C244.866 78.3054 245.275 84.0737 241.912 88.2412C242.241 88.4841 242.559 88.7433 242.864 89.0188L243.335 89.4429Z" fill="#B4B4B8"/>
<path fill-rule="evenodd" clip-rule="evenodd" d="M217.912 101.798C217.912 95.7658 222.802 90.8757 228.834 90.8757H231.755C237.787 90.8757 242.677 95.7658 242.677 101.798C242.677 102.242 242.651 102.68 242.599 103.111C247.676 104.05 251.522 108.501 251.522 113.85C251.522 119.883 246.632 124.773 240.6 124.773H237.679C234.61 124.773 231.836 123.507 229.852 121.469C227.868 123.507 225.095 124.773 222.026 124.773H219.105C213.073 124.773 208.183 119.883 208.183 113.85C208.183 108.199 212.474 103.551 217.976 102.986C217.933 102.596 217.912 102.199 217.912 101.798Z" fill="#B4B4B8"/>
<path fill-rule="evenodd" clip-rule="evenodd" d="M189.976 108.612C192.319 112.766 196.774 115.572 201.883 115.572H205.536C206.969 115.572 208.351 115.351 209.649 114.942C208.046 119.7 209.646 124.965 214.274 128.242C220.587 132.712 230.146 131.789 235.55 126.253C235.966 125.826 236.346 125.385 236.69 124.93C242.814 127.633 250.683 126.312 255.395 121.486C258.193 118.62 259.36 115.047 258.959 111.646H260.188C266.272 111.646 271.437 107.713 273.279 102.251C273.464 103.153 273.562 104.088 273.562 105.045C273.562 105.773 273.505 106.488 273.397 107.186C273.789 108.466 274 109.826 274 111.235C274 118.863 267.816 125.047 260.188 125.047H258.959C259.36 128.447 258.193 132.02 255.395 134.886C250.683 139.712 242.814 141.033 236.69 138.33C236.346 138.785 235.966 139.227 235.55 139.653C230.146 145.189 220.587 146.113 214.274 141.642C209.646 138.365 208.046 133.1 209.649 128.342C208.351 128.751 206.969 128.972 205.536 128.972H201.883C194.339 128.972 188.223 122.856 188.223 115.312C188.223 112.877 188.86 110.591 189.976 108.612Z" fill="#B4B4B8"/>
<path d="M226.045 120.57H234.875L242.072 179.11H218.735L226.045 120.57Z" fill="#C7C8CC"/>
<path d="M225.982 120.57H234.938L238.73 152.078H222.168L225.982 120.57Z" fill="#C7C8CC"/>
<path fill-rule="evenodd" clip-rule="evenodd" d="M234.626 142.118C248.435 133.65 250.114 120.927 249.148 115.373L242.909 116.16C243.624 120.275 242.36 130.757 230.94 137.759L234.626 142.118Z" fill="#C7C8CC"/>
<path fill-rule="evenodd" clip-rule="evenodd" d="M219.092 101.776C219.092 94.934 224.638 89.3873 231.481 89.3873H234.794C241.636 89.3873 247.182 94.934 247.182 101.776C247.182 102.28 247.152 102.777 247.094 103.265C252.853 104.33 257.215 109.379 257.215 115.447C257.215 122.289 251.668 127.836 244.826 127.836H241.513C238.032 127.836 234.886 126.4 232.636 124.088C230.385 126.4 227.239 127.836 223.758 127.836H220.445C213.603 127.836 208.056 122.289 208.056 115.447C208.056 109.037 212.924 103.764 219.164 103.123C219.116 102.681 219.092 102.231 219.092 101.776Z" fill="#B4B4B8"/>
<path fill-rule="evenodd" clip-rule="evenodd" d="M230.142 88.6391C235.058 91.49 236.165 97.3986 232.616 101.836C229.068 106.274 222.206 107.561 217.291 104.71L215.547 103.698C215.378 103.6 215.214 103.499 215.054 103.394C211.305 106.087 205.955 106.536 201.918 104.195L200.174 103.183C195.259 100.332 194.151 94.4239 197.7 89.9861C199.619 87.5861 202.507 86.1079 205.532 85.7072C204.862 83.1632 205.419 80.3331 207.339 77.9332C210.887 73.4954 217.749 72.209 222.664 75.0599L224.408 76.0715C228.671 78.5441 230.07 83.3166 228.051 87.4348C228.168 87.4968 228.284 87.561 228.398 87.6275L230.142 88.6391Z" fill="#B4B4B8"/>
<path fill-rule="evenodd" clip-rule="evenodd" d="M299.631 56.0396C299.631 43.4479 309.838 33.2403 322.43 33.2403C335.022 33.2403 345.229 43.4479 345.229 56.0396V56.8847C345.229 57.8572 345.168 58.8156 345.05 59.7561C354.56 62.5011 361.514 71.2702 361.514 81.6637V82.5088C361.514 95.1005 351.307 105.308 338.715 105.308C331.906 105.308 325.793 102.323 321.616 97.5896C317.438 102.323 311.326 105.308 304.516 105.308C291.924 105.308 281.717 95.1005 281.717 82.5088V81.6637C281.717 70.7019 289.453 61.5469 299.763 59.3605C299.676 58.5473 299.631 57.7213 299.631 56.8847V56.0396Z" fill="#B4B4B8"/>
<path fill-rule="evenodd" clip-rule="evenodd" d="M350.936 124.006C343.184 133.175 329.364 134.447 320.069 126.847C310.774 119.247 309.523 105.653 317.274 96.4843L318.188 95.4033C318.728 94.7645 319.298 94.1641 319.893 93.6023C314.582 85.8661 314.854 75.2986 321.245 67.7391L322.159 66.6581C329.911 57.4891 343.73 56.2171 353.025 63.8172C358.052 67.9272 360.726 73.7903 360.896 79.7585C366.894 78.8333 373.244 80.3487 378.271 84.4588C387.566 92.0588 388.817 105.653 381.066 114.822L380.152 115.903C373.409 123.878 362.077 125.878 353.124 121.264C352.73 121.832 352.305 122.386 351.85 122.925L350.936 124.006Z" fill="#B4B4B8"/>
<path fill-rule="evenodd" clip-rule="evenodd" d="M345.428 48.8192C345.428 36.0876 355.749 25.7665 368.481 25.7665C381.213 25.7665 391.534 36.0876 391.534 48.8192V49.6737C391.534 50.657 391.472 51.626 391.353 52.577C400.968 55.3525 408 64.2191 408 74.7281V75.5825C408 88.3142 397.679 98.6352 384.947 98.6352C378.062 98.6352 371.882 95.6167 367.658 90.8309C363.433 95.6167 357.253 98.6352 350.368 98.6352C337.636 98.6352 327.315 88.3142 327.315 75.5825V74.7281C327.315 63.6444 335.138 54.3876 345.563 52.177C345.474 51.3547 345.428 50.5195 345.428 49.6737V48.8192Z" fill="#B4B4B8"/>
<path fill-rule="evenodd" clip-rule="evenodd" d="M344.783 38.2967C344.783 25.565 355.104 15.244 367.835 15.244C380.567 15.244 390.888 25.5651 390.888 38.2967V39.1512C390.888 40.1345 390.826 41.1035 390.707 42.0545C400.322 44.83 407.354 53.6966 407.354 64.2056V65.06C407.354 77.7917 397.033 88.1127 384.302 88.1127C377.416 88.1127 371.236 85.0942 367.012 80.3084C362.788 85.0942 356.608 88.1127 349.723 88.1127C336.991 88.1127 326.67 77.7916 326.67 65.06V64.2055C326.67 53.1218 334.492 43.8651 344.917 41.6545C344.828 40.8322 344.783 39.997 344.783 39.1511V38.2967Z" fill="#B4B4B8"/>
<path fill-rule="evenodd" clip-rule="evenodd" d="M307.429 31.1102C307.429 20.6638 315.898 12.1953 326.344 12.1953C336.791 12.1953 345.259 20.6638 345.259 31.1103V31.8114C345.259 32.6182 345.209 33.4132 345.111 34.1935C353 36.4708 358.77 43.746 358.77 52.3688V53.0699C358.77 63.5163 350.301 71.9849 339.855 71.9849C334.205 71.9849 329.135 69.5082 325.669 65.5813C322.203 69.5082 317.132 71.9849 311.482 71.9849C301.036 71.9849 292.567 63.5163 292.567 53.0699V52.3687C292.567 43.2745 298.986 35.6792 307.539 33.8653C307.467 33.1907 307.429 32.5054 307.429 31.8114V31.1102Z" fill="#B4B4B8"/>
<path fill-rule="evenodd" clip-rule="evenodd" d="M363.288 39.9624C370.469 47.4364 370.136 59.2151 362.543 66.2708C354.95 73.3265 342.973 72.9874 335.792 65.5134L334.888 64.5733C334.396 64.0614 333.94 63.5293 333.518 62.98C326.223 66.6611 317.045 65.3484 311.125 59.1873L310.221 58.2472C303.04 50.7732 303.373 38.9946 310.966 31.9389C315.072 28.1231 320.461 26.4701 325.679 26.9387C325.499 21.7883 327.482 16.5913 331.588 12.7756C339.181 5.71985 351.158 6.05893 358.34 13.5329L359.243 14.4731C365.489 20.9728 366.05 30.728 361.097 37.8014C361.541 38.1846 361.971 38.5916 362.384 39.0223L363.288 39.9624Z" fill="#B4B4B8"/>
<path fill-rule="evenodd" clip-rule="evenodd" d="M325.754 60.5188C325.754 50.4506 333.916 42.2887 343.984 42.2887C354.052 42.2887 362.214 50.4506 362.214 60.5188V61.1945C362.214 61.9721 362.165 62.7384 362.071 63.4904C369.675 65.6852 375.236 72.697 375.236 81.0075V81.6832C375.236 91.7514 367.074 99.9133 357.005 99.9133C351.561 99.9133 346.673 97.5263 343.333 93.7416C339.992 97.5263 335.105 99.9133 329.66 99.9133C319.592 99.9133 311.43 91.7514 311.43 81.6832V81.0075C311.43 72.2425 317.616 64.9222 325.86 63.1741C325.79 62.5239 325.754 61.8634 325.754 61.1945V60.5188Z" fill="#B4B4B8"/>
<path fill-rule="evenodd" clip-rule="evenodd" d="M283.549 71.1786C287.344 78.4944 294.988 83.4927 303.799 83.4927C306.906 83.4927 309.868 82.8713 312.567 81.7461C309.841 89.9076 312.246 99.2215 319.352 105.032C328.647 112.632 342.467 111.36 350.219 102.191L351.133 101.11C351.588 100.571 352.013 100.016 352.407 99.4485C361.36 104.063 372.693 102.062 379.435 94.0874L380.349 93.0064C384.328 88.2991 385.935 82.4255 385.299 76.7955C395.263 76.3409 403.577 69.5613 406.321 60.3778C406.529 61.6228 406.638 62.9015 406.638 64.2055V65.06C406.638 66.1892 406.556 67.2995 406.4 68.3853C406.975 70.4004 407.283 72.5282 407.283 74.7281V75.5825C407.283 87.9561 397.535 98.0527 385.299 98.6109C385.935 104.241 384.328 110.115 380.349 114.822L379.435 115.903C372.693 123.878 361.36 125.878 352.407 121.264C352.013 121.832 351.588 122.386 351.133 122.925L350.219 124.006C342.467 133.175 328.647 134.447 319.352 126.847C312.246 121.037 309.841 111.723 312.567 103.562C309.868 104.687 306.906 105.308 303.799 105.308C291.208 105.308 281 95.1005 281 82.5088V81.6637C281 77.8832 281.92 74.3175 283.549 71.1786Z" fill="#B4B4B8"/>
<path d="M336.593 52.4276H353.272L366.865 180.11H322.785L336.593 52.4276Z" fill="#C7C8CC"/>
<path d="M336.473 52.4276H353.391L360.554 121.15H329.269L336.473 52.4276Z" fill="#C7C8CC"/>
<path fill-rule="evenodd" clip-rule="evenodd" d="M327.023 62.1559C327.023 52.0877 335.185 43.9258 345.253 43.9258C355.321 43.9258 363.483 52.0877 363.483 62.1559V62.8316C363.483 63.6093 363.434 64.3755 363.34 65.1275C370.944 67.3224 376.505 74.3341 376.505 82.6447V83.3204C376.505 93.3886 368.343 101.55 358.274 101.55C352.83 101.55 347.942 99.1634 344.602 95.3787C341.261 99.1634 336.374 101.55 330.929 101.55C320.861 101.55 312.699 93.3886 312.699 83.3204V82.6446C312.699 73.8796 318.885 66.5594 327.129 64.8112C327.059 64.161 327.023 63.5005 327.023 62.8316V62.1559Z" fill="#B4B4B8"/>
<path fill-rule="evenodd" clip-rule="evenodd" d="M337.172 37.7305C343.583 42.0245 345.219 50.6482 340.826 56.992C336.433 63.3358 327.674 64.9975 321.262 60.7035L320.285 60.0491C319.871 59.772 319.478 59.4769 319.104 59.1655C314.389 63.0007 307.513 63.5055 302.231 59.9677L301.254 59.3134C294.843 55.0194 293.207 46.3957 297.6 40.0519C299.976 36.6211 303.629 34.5598 307.496 34.0692C306.544 30.3503 307.156 26.2528 309.532 22.8221C313.926 16.4783 322.685 14.8167 329.096 19.1107L330.073 19.765C335.646 23.4977 337.611 30.502 335.144 36.4364C335.5 36.6327 335.851 36.8458 336.195 37.0762L337.172 37.7305Z" fill="#B4B4B8"/>
<path d="M134.717 109.316H146.336L155.805 188.11H125.098L134.717 109.316Z" fill="#C7C8CC"/>
<path d="M134.634 109.316H146.177L151.196 151.725H129.615L134.634 109.316Z" fill="#C7C8CC"/>
<path d="M175.353 144.528C186.936 145.545 179.262 133.41 173.663 122.619C168.064 111.829 155.95 91.5297 137.356 91.5297C122.12 91.5297 93.2477 139.159 100.009 143.64C105.418 147.225 118.115 144.412 126.567 138.769C129.103 143.748 132.931 146.079 139.016 146.477C145.101 146.876 148.651 143.25 153.44 138.769C155.13 140.429 165.248 143.64 175.353 144.528Z" fill="#C7C8CC"/>
<path fill-rule="evenodd" clip-rule="evenodd" d="M173.169 121.412C166.187 109.441 154.118 93.5767 136.984 93.5767C128.171 93.5767 115.16 108.242 106.026 122.693C112.243 122.145 119.622 119.539 125.262 115.774C128.016 121.184 132.539 126.809 139.15 127.242C145.762 127.675 150.694 122.03 154.458 115.774C156.009 117.296 164.085 120.02 173.169 121.412Z" fill="#B4B4B8"/>
<path d="M175.353 117.109C186.439 120.206 179.262 105.991 173.663 95.2004C168.064 84.4097 155.95 64.1109 137.356 64.1109C122.12 64.1109 93.2477 111.74 100.009 116.221C105.418 119.806 118.115 111.02 126.567 105.377C129.103 110.356 132.931 118.66 139.016 119.058C145.101 119.457 148.651 109.858 153.44 105.377C155.13 107.036 165.248 114.285 175.353 117.109Z" fill="#C7C8CC"/>
<path fill-rule="evenodd" clip-rule="evenodd" d="M167.943 84.1099C170.626 89.087 172.59 92.7299 172.275 92.7023C163.687 91.9507 153.729 88.6479 152.293 87.2422C149.348 92.1193 144.824 95.2257 139.652 94.8883C134.481 94.5509 129.762 90.7985 127.607 86.5814C120.425 91.3608 107.098 93.1395 108.034 91.8279C109.635 89.5847 111.131 87.1062 112.555 84.5008C121.12 72.5496 131.552 62.0977 138.992 62.0977C147.98 62.0977 155.575 66.4639 161.773 72.3436C162.092 73.0446 162.413 73.7128 162.739 74.3395C164.51 77.7407 166.353 81.1597 167.943 84.1099Z" fill="#B4B4B8"/>
<path d="M171.773 84.8325C179.803 87.2369 173.81 74.8335 169.263 66.0325C164.716 57.2315 153.242 43.3539 138.18 42.4211C124.094 41.5488 101.037 79.8659 106.528 83.5209C110.921 86.4448 122.554 80.6804 129.418 76.0779C131.477 80.1389 134.586 86.912 139.528 87.2369C144.469 87.5618 147.352 79.7328 151.241 76.0779C152.614 77.4315 164.612 82.6885 171.773 84.8325Z" fill="#C7C8CC"/>
<path fill-rule="evenodd" clip-rule="evenodd" d="M165.295 59.4025C166.929 61.9144 167.93 63.4521 167.758 63.4093C167.385 63.3165 166.926 63.2047 166.4 63.0767C161.971 61.9984 152.837 59.7747 151.196 58.1628C150.192 59.2587 149.286 60.2772 148.457 61.2097C144.783 65.3397 142.611 67.7814 140.154 67.7814C137.07 67.7814 135.236 65.4723 132.903 62.5345C131.809 61.1577 130.606 59.6428 129.113 58.1628C119.93 64.2938 113.555 63.8465 113.555 63.8465C113.555 63.8465 116.946 52.9005 122.887 43.0006C128.295 37.6692 133.65 34.1163 137.988 34.1163C143.321 34.1163 148.164 35.6534 152.515 38.1317C152.577 38.2493 152.639 38.3682 152.701 38.4884C156.699 46.1928 162.161 54.5875 165.295 59.4025Z" fill="#B4B4B8"/>
<path d="M164.208 57.2538C171.003 60.6599 166.827 49.6486 163.076 42.2671C159.325 34.8856 151.209 21 138.751 21C128.543 21 109.199 53.5813 113.729 56.6468C117.353 59.0992 125.86 53.0885 131.522 49.2282C133.221 52.6343 135.786 58.315 139.863 58.5875C143.94 58.86 146.318 52.2937 149.527 49.2282C150.659 50.3636 158.772 54.5289 164.208 57.2538Z" fill="#C7C8CC"/>
<path d="M441.878 138.516H450.622L457.749 183.11H434.64L441.878 138.516Z" fill="#C7C8CC"/>
<path d="M441.816 138.516H450.503L454.28 162.518H438.039L441.816 138.516Z" fill="#C7C8CC"/>
<path d="M472.46 158.984C481.177 159.805 475.401 149.999 471.188 141.28C466.974 132.56 457.858 116.157 443.865 116.157C432.399 116.157 410.671 154.645 415.759 158.267C419.83 161.164 429.385 158.89 435.746 154.33C437.654 158.354 440.535 160.237 445.114 160.559C449.694 160.881 452.365 157.951 455.969 154.33C457.241 155.671 464.855 158.267 472.46 158.984Z" fill="#C7C8CC"/>
<path fill-rule="evenodd" clip-rule="evenodd" d="M470.816 140.304C465.562 130.631 456.479 117.811 443.585 117.811C436.953 117.811 427.161 129.662 420.288 141.339C424.966 140.897 430.519 138.791 434.763 135.748C436.836 140.12 440.24 144.665 445.215 145.015C450.191 145.365 453.902 140.804 456.735 135.748C457.902 136.978 463.979 139.179 470.816 140.304Z" fill="#B4B4B8"/>
<path d="M472.46 136.827C480.802 139.33 475.401 127.843 471.188 119.123C466.974 110.403 457.858 94 443.865 94C432.399 94 410.671 132.489 415.759 136.11C419.83 139.007 429.385 131.906 435.746 127.346C437.654 131.37 440.535 138.08 445.114 138.402C449.694 138.724 452.365 130.967 455.969 127.346C457.241 128.687 464.855 134.545 472.46 136.827Z" fill="#C7C8CC"/>
<path fill-rule="evenodd" clip-rule="evenodd" d="M497.051 86.0208C497.051 76.8475 504.487 69.4111 513.66 69.4111C522.834 69.4111 530.27 76.8475 530.27 86.0208V89.6812C530.27 89.9359 530.264 90.1894 530.253 90.4413C537.123 92.4778 542.134 98.8378 542.134 106.368V110.029C542.134 119.202 534.698 126.638 525.524 126.638C520.563 126.638 516.111 124.464 513.067 121.015C510.024 124.464 505.571 126.638 500.61 126.638C491.436 126.638 484 119.202 484 110.029V106.368C484 98.4145 489.591 91.7665 497.057 90.1394C497.053 89.9872 497.051 89.8344 497.051 89.6812V86.0208Z" fill="#B4B4B8"/>
<path fill-rule="evenodd" clip-rule="evenodd" d="M534.268 141.692C528.708 148.859 518.712 149.777 511.94 143.742C505.168 137.707 504.185 127.004 509.745 119.837L510.729 118.568C511.068 118.132 511.422 117.719 511.792 117.329C507.918 111.213 508.059 102.913 512.637 97.0112L513.622 95.7419C519.181 88.5745 529.178 87.6565 535.949 93.6914C539.612 96.9551 541.581 101.584 541.738 106.28C546.074 105.589 550.679 106.819 554.341 110.082C561.113 116.117 562.096 126.82 556.537 133.988L555.552 135.257C550.721 141.485 542.54 142.994 536.036 139.323C535.791 139.698 535.53 140.064 535.252 140.422L534.268 141.692Z" fill="#B4B4B8"/>
<path fill-rule="evenodd" clip-rule="evenodd" d="M530.415 80.2707C530.415 70.9954 537.934 63.4764 547.21 63.4764C556.485 63.4764 564.004 70.9954 564.004 80.2707V83.9717C564.004 84.2293 563.998 84.4855 563.987 84.7403C570.933 86.7994 576 93.2301 576 100.844V104.545C576 113.82 568.481 121.34 559.205 121.34C554.189 121.34 549.687 119.141 546.61 115.654C543.532 119.141 539.03 121.34 534.014 121.34C524.739 121.34 517.22 113.82 517.22 104.545V100.844C517.22 92.8021 522.872 86.0802 530.421 84.4351C530.417 84.2811 530.415 84.1266 530.415 83.9717V80.2707Z" fill="#B4B4B8"/>
<path fill-rule="evenodd" clip-rule="evenodd" d="M529.945 71.915C529.945 62.6398 537.464 55.1207 546.739 55.1207C556.015 55.1207 563.534 62.6398 563.534 71.915V75.616C563.534 75.8736 563.528 76.1299 563.516 76.3846C570.462 78.4437 575.53 84.8744 575.53 92.4886V96.1896C575.53 105.465 568.01 112.984 558.735 112.984C553.719 112.984 549.217 110.785 546.14 107.298C543.062 110.785 538.56 112.984 533.544 112.984C524.269 112.984 516.75 105.465 516.75 96.1896V92.4886C516.75 84.4464 522.402 77.7245 529.951 76.0794C529.947 75.9255 529.945 75.771 529.945 75.616V71.915Z" fill="#B4B4B8"/>
<path fill-rule="evenodd" clip-rule="evenodd" d="M502.732 66.4797C502.732 58.8692 508.902 52.6998 516.512 52.6998C524.123 52.6998 530.292 58.8693 530.292 66.4797V69.5164C530.292 69.7278 530.288 69.938 530.278 70.1471C535.977 71.8366 540.135 77.113 540.135 83.3606V86.3973C540.135 94.0077 533.966 100.177 526.355 100.177C522.239 100.177 518.545 98.3729 516.02 95.5121C513.495 98.3729 509.801 100.177 505.685 100.177C498.075 100.177 491.905 94.0077 491.905 86.3973V83.3606C491.905 76.7618 496.543 71.2464 502.738 69.8966C502.734 69.7703 502.732 69.6436 502.732 69.5164V66.4797Z" fill="#B4B4B8"/>
<path fill-rule="evenodd" clip-rule="evenodd" d="M513.633 80.5066C513.633 73.1717 519.579 67.2256 526.914 67.2256C534.249 67.2256 540.195 73.1717 540.195 80.5066V83.4334C540.195 83.6371 540.19 83.8397 540.181 84.0412C545.674 85.6695 549.681 90.7549 549.681 96.7762V99.703C549.681 107.038 543.735 112.984 536.4 112.984C532.433 112.984 528.873 111.245 526.439 108.488C524.006 111.245 520.445 112.984 516.479 112.984C509.144 112.984 503.198 107.038 503.198 99.703V96.7762C503.198 90.4165 507.668 85.1008 513.638 83.7998C513.634 83.6781 513.633 83.5559 513.633 83.4334V80.5066Z" fill="#B4B4B8"/>
<path fill-rule="evenodd" clip-rule="evenodd" d="M486.577 98.7014C489.481 103.533 494.775 106.766 500.823 106.766C503.624 106.766 506.263 106.073 508.578 104.849C509.546 106.965 510.94 108.905 512.745 110.514C519.517 116.549 529.513 115.631 535.072 108.464L536.057 107.194C536.334 106.836 536.596 106.47 536.841 106.095C543.345 109.766 551.526 108.257 556.357 102.029L556.934 101.285C557.745 101.405 558.574 101.467 559.419 101.467C566.87 101.467 573.187 96.6151 575.384 89.8981C575.619 91.0173 575.743 92.1774 575.743 93.3665V97.0675C575.743 97.2827 575.739 97.497 575.731 97.7103C576.046 98.9958 576.213 100.339 576.213 101.722V105.423C576.213 114.42 569.138 121.765 560.248 122.197C560.725 126.613 559.592 131.201 556.75 134.865L555.766 136.135C550.935 142.363 542.754 143.872 536.25 140.201C536.005 140.576 535.743 140.942 535.466 141.3L534.481 142.57C528.922 149.737 518.925 150.655 512.154 144.62C506.985 140.013 505.188 132.687 507.101 126.289C505.164 127.08 503.044 127.516 500.823 127.516C491.65 127.516 484.213 120.08 484.213 110.907V107.246C484.213 104.121 485.076 101.198 486.577 98.7014Z" fill="#C7C8CC"/>
<path d="M526.269 116.149H534.174L540.616 182.11H519.725L526.269 116.149Z" fill="#C7C8CC"/>
<path d="M526.212 116.149H534.231L537.625 151.651H522.798L526.212 116.149Z" fill="#C7C8CC"/>
<path fill-rule="evenodd" clip-rule="evenodd" d="M524.048 144.256C511.686 134.715 510.183 120.379 511.048 114.12L516.633 115.007C515.992 119.644 517.125 131.454 527.348 139.344L524.048 144.256Z" fill="#C7C8CC"/>
<path fill-rule="evenodd" clip-rule="evenodd" d="M533.386 134.572C545.749 125.031 547.251 110.695 546.386 104.437L540.801 105.324C541.442 109.96 540.309 121.77 530.086 129.66L533.386 134.572Z" fill="#C7C8CC"/>
<path fill-rule="evenodd" clip-rule="evenodd" d="M516.142 92.0979C516.142 85.9755 521.105 81.0123 527.228 81.0123C533.35 81.0123 538.313 85.9755 538.313 92.0979V94.5408C538.313 94.7109 538.31 94.88 538.302 95.0482C542.887 96.4074 546.232 100.652 546.232 105.678V108.121C546.232 114.243 541.268 119.207 535.146 119.207C531.835 119.207 528.863 117.755 526.832 115.454C524.801 117.755 521.829 119.207 518.518 119.207C512.395 119.207 507.432 114.243 507.432 108.121V105.678C507.432 100.37 511.163 95.9326 516.146 94.8467C516.144 94.7451 516.142 94.6431 516.142 94.5409V92.0979Z" fill="#B4B4B8"/>
<path fill-rule="evenodd" clip-rule="evenodd" d="M536.072 97.2812C536.072 92.9907 539.55 89.5126 543.84 89.5126C548.131 89.5126 551.609 92.9907 551.609 97.2812V98.9932C551.609 99.1123 551.606 99.2309 551.601 99.3487C554.814 100.301 557.158 103.276 557.158 106.798V108.51C557.158 112.8 553.68 116.279 549.389 116.279C547.069 116.279 544.986 115.261 543.563 113.649C542.139 115.261 540.057 116.279 537.736 116.279C533.446 116.279 529.968 112.8 529.968 108.51V106.798C529.968 103.078 532.583 99.9685 536.075 99.2075C536.073 99.1363 536.072 99.0649 536.072 98.9932V97.2812Z" fill="#B4B4B8"/>
<path fill-rule="evenodd" clip-rule="evenodd" d="M525.488 73.1658C530.542 76.9473 531.846 84.3003 528.401 89.589C524.957 94.8778 518.068 96.0997 513.014 92.3181L512.808 92.164C512.398 91.857 512.013 91.5266 511.653 91.1756C507.949 94.3512 502.523 94.6412 498.349 91.5178L498.143 91.3637C493.09 87.5821 491.786 80.2292 495.23 74.9404C497.093 72.0803 499.963 70.4095 503.006 70.0763C502.249 66.9001 502.723 63.4363 504.586 60.5762C508.03 55.2874 514.919 54.0655 519.973 57.8471L520.179 58.0012C524.58 61.295 526.137 67.2983 524.19 72.2871C524.562 72.504 524.927 72.7454 525.282 73.0117L525.488 73.1658Z" fill="#B4B4B8"/>
<path fill-rule="evenodd" clip-rule="evenodd" d="M684.168 102.213C684.168 94.6689 690.284 88.5532 697.828 88.5532H701.48C709.025 88.5532 715.14 94.6689 715.14 102.213C715.14 102.769 715.107 103.316 715.043 103.855C721.393 105.029 726.202 110.596 726.202 117.286C726.202 124.83 720.086 130.946 712.542 130.946H708.889C705.051 130.946 701.582 129.363 699.101 126.814C696.62 129.363 693.151 130.946 689.313 130.946H685.66C678.116 130.946 672 124.83 672 117.286C672 110.219 677.367 104.405 684.248 103.698C684.195 103.21 684.168 102.715 684.168 102.213Z" fill="#B4B4B8"/>
<path fill-rule="evenodd" clip-rule="evenodd" d="M719.327 141.627C713.923 147.163 704.364 148.087 698.05 143.616C691.737 139.146 691.058 130.973 696.463 125.438C696.937 124.951 697.444 124.501 697.978 124.086C694.381 119.487 694.691 113.106 699.159 108.529C704.564 102.993 714.122 102.069 720.436 106.54C723.85 108.957 725.616 112.458 725.664 116.038C729.806 115.424 734.169 116.264 737.584 118.682C743.898 123.152 744.576 131.325 739.172 136.86C734.46 141.687 726.591 143.007 720.467 140.304C720.123 140.759 719.743 141.201 719.327 141.627Z" fill="#B4B4B8"/>
<path fill-rule="evenodd" clip-rule="evenodd" d="M715.276 97.9686C715.276 90.3406 721.459 84.1569 729.087 84.1569H732.781C740.409 84.1569 746.592 90.3406 746.592 97.9686C746.592 98.5303 746.559 99.0842 746.494 99.6283C752.914 100.816 757.777 106.445 757.777 113.209C757.777 120.837 751.593 127.021 743.965 127.021H740.272C736.391 127.021 732.884 125.42 730.375 122.843C727.866 125.42 724.359 127.021 720.478 127.021H716.784C709.156 127.021 702.973 120.837 702.973 113.209C702.973 106.063 708.399 100.185 715.356 99.4703C715.303 98.9771 715.276 98.476 715.276 97.9686Z" fill="#B4B4B8"/>
<path fill-rule="evenodd" clip-rule="evenodd" d="M714.837 91.7788C714.837 84.1508 721.021 77.9671 728.649 77.9671H732.342C739.97 77.9671 746.154 84.1508 746.154 91.7788C746.154 92.3405 746.12 92.8944 746.055 93.4385C752.476 94.6263 757.338 100.255 757.338 107.019C757.338 114.647 751.155 120.831 743.527 120.831H739.833C735.952 120.831 732.445 119.23 729.936 116.653C727.427 119.23 723.92 120.831 720.039 120.831H716.346C708.718 120.831 702.534 114.647 702.534 107.019C702.534 99.8735 707.961 93.9952 714.918 93.2806C714.865 92.7873 714.837 92.2863 714.837 91.7788Z" fill="#B4B4B8"/>
<path fill-rule="evenodd" clip-rule="evenodd" d="M689.465 87.5064C689.465 81.2475 694.539 76.1737 700.798 76.1737H703.828C710.087 76.1737 715.161 81.2475 715.161 87.5064C715.161 87.9673 715.134 88.4217 715.08 88.8682C720.348 89.8428 724.338 94.4612 724.338 100.011C724.338 106.27 719.264 111.344 713.006 111.344H709.975C706.791 111.344 703.913 110.031 701.854 107.916C699.796 110.031 696.918 111.344 693.734 111.344H690.703C684.444 111.344 679.371 106.27 679.371 100.011C679.371 94.1482 683.823 89.3249 689.532 88.7386C689.488 88.3339 689.465 87.9228 689.465 87.5064Z" fill="#B4B4B8"/>
<path fill-rule="evenodd" clip-rule="evenodd" d="M727.335 92.4429C732.252 96.8749 732.058 103.832 726.901 107.983C721.743 112.133 713.576 111.905 708.658 107.473L708.188 107.049C707.829 106.725 707.497 106.388 707.193 106.04C702.227 108.203 695.96 107.408 691.904 103.752L691.433 103.328C686.515 98.8955 686.71 91.938 691.867 87.7876C694.656 85.543 698.326 84.5791 701.885 84.8681C701.748 81.825 703.086 78.7596 705.875 76.515C711.032 72.3646 719.2 72.5929 724.117 77.025L724.588 77.4491C728.866 81.3054 729.275 87.0737 725.912 91.2412C726.241 91.4841 726.559 91.7433 726.864 92.0188L727.335 92.4429Z" fill="#B4B4B8"/>
<path fill-rule="evenodd" clip-rule="evenodd" d="M701.912 104.798C701.912 98.7658 706.802 93.8757 712.834 93.8757H715.755C721.787 93.8757 726.677 98.7658 726.677 104.798C726.677 105.242 726.651 105.68 726.599 106.111C731.676 107.05 735.522 111.501 735.522 116.85C735.522 122.883 730.632 127.773 724.6 127.773H721.679C718.61 127.773 715.836 126.507 713.852 124.469C711.868 126.507 709.095 127.773 706.026 127.773H703.105C697.073 127.773 692.183 122.883 692.183 116.85C692.183 111.199 696.474 106.551 701.976 105.986C701.933 105.596 701.912 105.199 701.912 104.798Z" fill="#B4B4B8"/>
<path fill-rule="evenodd" clip-rule="evenodd" d="M673.976 111.612C676.319 115.766 680.774 118.572 685.883 118.572H689.536C690.969 118.572 692.351 118.351 693.649 117.942C692.046 122.7 693.646 127.965 698.274 131.242C704.587 135.712 714.146 134.789 719.55 129.253C719.966 128.826 720.346 128.385 720.69 127.93C726.814 130.633 734.683 129.312 739.395 124.486C742.193 121.62 743.36 118.047 742.959 114.646H744.188C750.272 114.646 755.437 110.713 757.279 105.251C757.464 106.153 757.562 107.088 757.562 108.045C757.562 108.773 757.505 109.488 757.397 110.186C757.789 111.466 758 112.826 758 114.235C758 121.863 751.816 128.047 744.188 128.047H742.959C743.36 131.447 742.193 135.02 739.395 137.886C734.683 142.712 726.814 144.033 720.69 141.33C720.346 141.785 719.966 142.227 719.55 142.653C714.146 148.189 704.587 149.113 698.274 144.642C693.646 141.365 692.046 136.1 693.649 131.342C692.351 131.751 690.969 131.972 689.536 131.972H685.883C678.339 131.972 672.223 125.856 672.223 118.312C672.223 115.877 672.86 113.591 673.976 111.612Z" fill="#B4B4B8"/>
<path d="M710.045 123.57H718.875L726.072 182.11H702.735L710.045 123.57Z" fill="#C7C8CC"/>
<path d="M709.982 123.57H718.938L722.73 155.078H706.168L709.982 123.57Z" fill="#C7C8CC"/>
<path fill-rule="evenodd" clip-rule="evenodd" d="M718.626 145.118C732.435 136.65 734.114 123.927 733.148 118.373L726.909 119.16C727.624 123.275 726.36 133.757 714.94 140.759L718.626 145.118Z" fill="#C7C8CC"/>
<path fill-rule="evenodd" clip-rule="evenodd" d="M703.092 104.776C703.092 97.934 708.638 92.3873 715.481 92.3873H718.794C725.636 92.3873 731.182 97.934 731.182 104.776C731.182 105.28 731.152 105.777 731.094 106.265C736.853 107.33 741.215 112.379 741.215 118.447C741.215 125.289 735.668 130.836 728.826 130.836H725.513C722.032 130.836 718.886 129.4 716.636 127.088C714.385 129.4 711.239 130.836 707.758 130.836H704.445C697.603 130.836 692.056 125.289 692.056 118.447C692.056 112.037 696.924 106.764 703.164 106.123C703.116 105.681 703.092 105.231 703.092 104.776Z" fill="#B4B4B8"/>
<path fill-rule="evenodd" clip-rule="evenodd" d="M714.142 91.6391C719.058 94.49 720.165 100.399 716.616 104.836C713.068 109.274 706.206 110.561 701.291 107.71L699.547 106.698C699.378 106.6 699.214 106.499 699.054 106.394C695.305 109.087 689.955 109.536 685.918 107.195L684.174 106.183C679.259 103.332 678.151 97.4239 681.7 92.9861C683.619 90.5861 686.507 89.1079 689.532 88.7072C688.862 86.1632 689.419 83.3331 691.339 80.9332C694.887 76.4954 701.749 75.209 706.664 78.0599L708.408 79.0715C712.671 81.5441 714.07 86.3166 712.051 90.4348C712.168 90.4968 712.284 90.561 712.398 90.6275L714.142 91.6391Z" fill="#B4B4B8"/>
<path fill-rule="evenodd" clip-rule="evenodd" d="M783.631 59.0396C783.631 46.4479 793.838 36.2403 806.43 36.2403C819.022 36.2403 829.229 46.4479 829.229 59.0396V59.8847C829.229 60.8572 829.168 61.8156 829.05 62.7561C838.56 65.5011 845.514 74.2702 845.514 84.6637V85.5088C845.514 98.1005 835.307 108.308 822.715 108.308C815.906 108.308 809.793 105.323 805.616 100.59C801.438 105.323 795.326 108.308 788.516 108.308C775.924 108.308 765.717 98.1005 765.717 85.5088V84.6637C765.717 73.7019 773.453 64.5469 783.763 62.3605C783.676 61.5473 783.631 60.7213 783.631 59.8847V59.0396Z" fill="#B4B4B8"/>
<path fill-rule="evenodd" clip-rule="evenodd" d="M834.936 127.006C827.184 136.175 813.364 137.447 804.069 129.847C794.774 122.247 793.523 108.653 801.274 99.4843L802.188 98.4033C802.728 97.7645 803.298 97.1641 803.893 96.6023C798.582 88.8661 798.854 78.2986 805.245 70.7391L806.159 69.6581C813.911 60.4891 827.73 59.2171 837.025 66.8172C842.052 70.9272 844.726 76.7903 844.896 82.7585C850.894 81.8333 857.244 83.3487 862.271 87.4588C871.566 95.0588 872.817 108.653 865.066 117.822L864.152 118.903C857.409 126.878 846.077 128.878 837.124 124.264C836.73 124.832 836.305 125.386 835.85 125.925L834.936 127.006Z" fill="#B4B4B8"/>
<path fill-rule="evenodd" clip-rule="evenodd" d="M829.428 51.8192C829.428 39.0876 839.749 28.7665 852.481 28.7665C865.213 28.7665 875.534 39.0876 875.534 51.8192V52.6737C875.534 53.657 875.472 54.626 875.353 55.577C884.968 58.3525 892 67.2191 892 77.7281V78.5825C892 91.3142 881.679 101.635 868.947 101.635C862.062 101.635 855.882 98.6167 851.658 93.8309C847.433 98.6167 841.253 101.635 834.368 101.635C821.636 101.635 811.315 91.3142 811.315 78.5825V77.7281C811.315 66.6444 819.138 57.3876 829.563 55.177C829.474 54.3547 829.428 53.5195 829.428 52.6737V51.8192Z" fill="#B4B4B8"/>
<path fill-rule="evenodd" clip-rule="evenodd" d="M828.783 41.2967C828.783 28.565 839.104 18.244 851.835 18.244C864.567 18.244 874.888 28.5651 874.888 41.2967V42.1512C874.888 43.1345 874.826 44.1035 874.707 45.0545C884.322 47.83 891.354 56.6966 891.354 67.2056V68.06C891.354 80.7917 881.033 91.1127 868.302 91.1127C861.416 91.1127 855.236 88.0942 851.012 83.3084C846.788 88.0942 840.608 91.1127 833.723 91.1127C820.991 91.1127 810.67 80.7916 810.67 68.06V67.2055C810.67 56.1218 818.492 46.8651 828.917 44.6545C828.828 43.8322 828.783 42.997 828.783 42.1511V41.2967Z" fill="#B4B4B8"/>
<path fill-rule="evenodd" clip-rule="evenodd" d="M791.429 34.1102C791.429 23.6638 799.898 15.1953 810.344 15.1953C820.791 15.1953 829.259 23.6638 829.259 34.1103V34.8114C829.259 35.6182 829.209 36.4132 829.111 37.1935C837 39.4708 842.77 46.746 842.77 55.3688V56.0699C842.77 66.5163 834.301 74.9849 823.855 74.9849C818.205 74.9849 813.135 72.5082 809.669 68.5813C806.203 72.5082 801.132 74.9849 795.482 74.9849C785.036 74.9849 776.567 66.5163 776.567 56.0699V55.3687C776.567 46.2745 782.986 38.6792 791.539 36.8653C791.467 36.1907 791.429 35.5054 791.429 34.8114V34.1102Z" fill="#B4B4B8"/>
<path fill-rule="evenodd" clip-rule="evenodd" d="M847.288 42.9624C854.469 50.4364 854.136 62.2151 846.543 69.2708C838.95 76.3265 826.973 75.9874 819.792 68.5134L818.888 67.5733C818.396 67.0614 817.94 66.5293 817.518 65.98C810.223 69.6611 801.045 68.3484 795.125 62.1873L794.221 61.2472C787.04 53.7732 787.373 41.9946 794.966 34.9389C799.072 31.1231 804.461 29.4701 809.679 29.9387C809.499 24.7883 811.482 19.5913 815.588 15.7756C823.181 8.71985 835.158 9.05893 842.34 16.5329L843.243 17.4731C849.489 23.9728 850.05 33.728 845.097 40.8014C845.541 41.1846 845.971 41.5916 846.384 42.0223L847.288 42.9624Z" fill="#B4B4B8"/>
<path fill-rule="evenodd" clip-rule="evenodd" d="M809.754 63.5188C809.754 53.4506 817.916 45.2887 827.984 45.2887C838.052 45.2887 846.214 53.4506 846.214 63.5188V64.1945C846.214 64.9721 846.165 65.7384 846.071 66.4904C853.675 68.6852 859.236 75.697 859.236 84.0075V84.6832C859.236 94.7514 851.074 102.913 841.005 102.913C835.561 102.913 830.673 100.526 827.333 96.7416C823.992 100.526 819.105 102.913 813.66 102.913C803.592 102.913 795.43 94.7514 795.43 84.6832V84.0075C795.43 75.2425 801.616 67.9222 809.86 66.1741C809.79 65.5239 809.754 64.8634 809.754 64.1945V63.5188Z" fill="#B4B4B8"/>
<path fill-rule="evenodd" clip-rule="evenodd" d="M767.549 74.1786C771.344 81.4944 778.988 86.4927 787.799 86.4927C790.906 86.4927 793.868 85.8713 796.567 84.7461C793.841 92.9076 796.246 102.222 803.352 108.032C812.647 115.632 826.467 114.36 834.219 105.191L835.133 104.11C835.588 103.571 836.013 103.016 836.407 102.449C845.36 107.063 856.693 105.062 863.435 97.0874L864.349 96.0064C868.328 91.2991 869.935 85.4255 869.299 79.7955C879.263 79.3409 887.577 72.5613 890.321 63.3778C890.529 64.6228 890.638 65.9015 890.638 67.2055V68.06C890.638 69.1892 890.556 70.2995 890.4 71.3853C890.975 73.4004 891.283 75.5282 891.283 77.7281V78.5825C891.283 90.9561 881.535 101.053 869.299 101.611C869.935 107.241 868.328 113.115 864.349 117.822L863.435 118.903C856.693 126.878 845.36 128.878 836.407 124.264C836.013 124.832 835.588 125.386 835.133 125.925L834.219 127.006C826.467 136.175 812.647 137.447 803.352 129.847C796.246 124.037 793.841 114.723 796.567 106.562C793.868 107.687 790.906 108.308 787.799 108.308C775.208 108.308 765 98.1005 765 85.5088V84.6637C765 80.8832 765.92 77.3175 767.549 74.1786Z" fill="#B4B4B8"/>
<path d="M820.593 55.4276H837.272L850.865 183.11H806.785L820.593 55.4276Z" fill="#C7C8CC"/>
<path d="M820.473 55.4276H837.391L844.554 124.15H813.269L820.473 55.4276Z" fill="#C7C8CC"/>
<path fill-rule="evenodd" clip-rule="evenodd" d="M811.023 65.1559C811.023 55.0877 819.185 46.9258 829.253 46.9258C839.321 46.9258 847.483 55.0877 847.483 65.1559V65.8316C847.483 66.6093 847.434 67.3755 847.34 68.1275C854.944 70.3224 860.505 77.3341 860.505 85.6447V86.3204C860.505 96.3886 852.343 104.55 842.274 104.55C836.83 104.55 831.942 102.163 828.602 98.3787C825.261 102.163 820.374 104.55 814.929 104.55C804.861 104.55 796.699 96.3886 796.699 86.3204V85.6446C796.699 76.8796 802.885 69.5594 811.129 67.8112C811.059 67.161 811.023 66.5005 811.023 65.8316V65.1559Z" fill="#B4B4B8"/>
<path fill-rule="evenodd" clip-rule="evenodd" d="M821.172 40.7305C827.583 45.0245 829.219 53.6482 824.826 59.992C820.433 66.3358 811.674 67.9975 805.262 63.7035L804.285 63.0491C803.871 62.772 803.478 62.4769 803.104 62.1655C798.389 66.0007 791.513 66.5055 786.231 62.9677L785.254 62.3134C778.843 58.0194 777.207 49.3957 781.6 43.0519C783.976 39.6211 787.629 37.5598 791.496 37.0692C790.544 33.3503 791.156 29.2528 793.532 25.8221C797.926 19.4783 806.685 17.8167 813.096 22.1107L814.073 22.765C819.646 26.4977 821.611 33.502 819.144 39.4364C819.5 39.6327 819.851 39.8458 820.195 40.0762L821.172 40.7305Z" fill="#B4B4B8"/>
<path d="M925.878 141.516H934.622L941.749 186.11H918.64L925.878 141.516Z" fill="#C7C8CC"/>
<path d="M925.816 141.516H934.503L938.28 165.518H922.039L925.816 141.516Z" fill="#C7C8CC"/>
<path d="M956.46 161.984C965.177 162.805 959.401 152.999 955.188 144.28C950.974 135.56 941.858 119.157 927.865 119.157C916.399 119.157 894.671 157.645 899.759 161.267C903.83 164.164 913.385 161.89 919.746 157.33C921.654 161.354 924.535 163.237 929.114 163.559C933.694 163.881 936.365 160.951 939.969 157.33C941.241 158.671 948.855 161.267 956.46 161.984Z" fill="#C7C8CC"/>
<path fill-rule="evenodd" clip-rule="evenodd" d="M954.816 143.304C949.562 133.631 940.479 120.811 927.585 120.811C920.953 120.811 911.161 132.662 904.288 144.339C908.966 143.897 914.519 141.791 918.763 138.748C920.836 143.12 924.24 147.665 929.215 148.015C934.191 148.365 937.902 143.804 940.735 138.748C941.902 139.978 947.979 142.179 954.816 143.304Z" fill="#B4B4B8"/>
<path d="M956.46 139.827C964.802 142.33 959.401 130.843 955.188 122.123C950.974 113.403 941.858 97 927.865 97C916.399 97 894.671 135.489 899.759 139.11C903.83 142.007 913.385 134.906 919.746 130.346C921.654 134.37 924.535 141.08 929.114 141.402C933.694 141.724 936.365 133.967 939.969 130.346C941.241 131.687 948.855 137.545 956.46 139.827Z" fill="#C7C8CC"/>
<path d="M618.717 112.316H630.336L639.805 191.11H609.098L618.717 112.316Z" fill="#C7C8CC"/>
<path d="M618.634 112.316H630.177L635.196 154.725H613.615L618.634 112.316Z" fill="#C7C8CC"/>
<path d="M659.353 147.528C670.936 148.545 663.262 136.41 657.663 125.619C652.064 114.829 639.95 94.5297 621.356 94.5297C606.12 94.5297 577.248 142.159 584.009 146.64C589.418 150.225 602.115 147.412 610.567 141.769C613.103 146.748 616.931 149.079 623.016 149.477C629.101 149.876 632.651 146.25 637.44 141.769C639.13 143.429 649.248 146.64 659.353 147.528Z" fill="#C7C8CC"/>
<path fill-rule="evenodd" clip-rule="evenodd" d="M657.169 124.412C650.187 112.441 638.118 96.5767 620.984 96.5767C612.171 96.5767 599.16 111.242 590.026 125.693C596.243 125.145 603.622 122.539 609.262 118.774C612.016 124.184 616.539 129.809 623.15 130.242C629.762 130.675 634.694 125.03 638.458 118.774C640.009 120.296 648.085 123.02 657.169 124.412Z" fill="#B4B4B8"/>
<path d="M659.353 120.109C670.439 123.206 663.262 108.991 657.663 98.2004C652.064 87.4097 639.95 67.1109 621.356 67.1109C606.12 67.1109 577.248 114.74 584.009 119.221C589.418 122.806 602.115 114.02 610.567 108.377C613.103 113.356 616.931 121.66 623.016 122.058C629.101 122.457 632.651 112.858 637.44 108.377C639.13 110.036 649.248 117.285 659.353 120.109Z" fill="#C7C8CC"/>
<path fill-rule="evenodd" clip-rule="evenodd" d="M651.943 87.1099C654.626 92.087 656.59 95.7299 656.275 95.7023C647.687 94.9507 637.729 91.6479 636.293 90.2422C633.348 95.1193 628.824 98.2257 623.652 97.8883C618.481 97.5509 613.762 93.7985 611.607 89.5814C604.425 94.3608 591.098 96.1395 592.034 94.8279C593.635 92.5847 595.131 90.1062 596.555 87.5008C605.12 75.5496 615.552 65.0977 622.992 65.0977C631.98 65.0977 639.575 69.4639 645.773 75.3436C646.092 76.0446 646.413 76.7128 646.739 77.3395C648.51 80.7407 650.353 84.1597 651.943 87.1099Z" fill="#B4B4B8"/>
<path d="M655.773 87.8325C663.803 90.2369 657.81 77.8335 653.263 69.0325C648.716 60.2315 637.242 46.3539 622.18 45.4211C608.094 44.5488 585.037 82.8659 590.528 86.5209C594.921 89.4448 606.554 83.6804 613.418 79.0779C615.477 83.1389 618.586 89.912 623.528 90.2369C628.469 90.5618 631.352 82.7328 635.241 79.0779C636.614 80.4315 648.612 85.6885 655.773 87.8325Z" fill="#C7C8CC"/>
<path fill-rule="evenodd" clip-rule="evenodd" d="M649.295 62.4025C650.929 64.9144 651.93 66.4521 651.758 66.4093C651.385 66.3165 650.926 66.2047 650.4 66.0767C645.971 64.9984 636.837 62.7747 635.196 61.1628C634.192 62.2587 633.286 63.2772 632.457 64.2097C628.783 68.3397 626.611 70.7814 624.154 70.7814C621.07 70.7814 619.236 68.4723 616.903 65.5345C615.809 64.1577 614.606 62.6428 613.113 61.1628C603.93 67.2938 597.555 66.8465 597.555 66.8465C597.555 66.8465 600.946 55.9005 606.887 46.0006C612.295 40.6692 617.65 37.1163 621.988 37.1163C627.321 37.1163 632.164 38.6534 636.515 41.1317C636.577 41.2493 636.639 41.3682 636.701 41.4884C640.699 49.1928 646.161 57.5875 649.295 62.4025Z" fill="#B4B4B8"/>
<path d="M648.208 60.2538C655.003 63.6599 650.827 52.6486 647.076 45.2671C643.325 37.8856 635.209 24 622.751 24C612.543 24 593.199 56.5813 597.729 59.6468C601.353 62.0992 609.86 56.0885 615.522 52.2282C617.221 55.6343 619.786 61.315 623.863 61.5875C627.94 61.86 630.318 55.2937 633.527 52.2282C634.659 53.3636 642.772 57.5289 648.208 60.2538Z" fill="#C7C8CC"/>
</svg>
